<svg width="100" height="60" viewBox="0 0 100 60" fill="none" xmlns="http://www.w3.org/2000/svg">
  <path d="M27.7 33.3l.7 3c0 1 .3 1.7 1 2.7v.7l-.3 1-2.4 1.3-.7.3-1-.3-1.3-1.7-1-2c-2.7 3-6 4.7-9.7 4.7-3 0-5.3-1-6.7-2.7C5 39 4 37 4 34.3s1-5 3-6.7c2-2 4.7-2.7 8.3-2.7 2.4 0 4.7.4 7.4 1v-2.3c0-2.7-.7-4.3-1.7-5.3-1-1.3-2.7-1.7-5.3-1.7l-3.7.3c-1.6.3-3.3 1-4.6 1.7h-.7c-.3 0-.7-.3-.7-1v-1.7l.3-1c0-.3.3-.7 1-.7l4-1.7 5.4-.6c4 0 6.7 1 8.7 2.7 1.7 2 2.7 4.6 2.7 8.3v10.7zM15.3 41l3.4-.7c1.3-.3 2.3-1.3 3.3-2.3l1-2 .3-3v-1.3c-2-.3-4-.4-6.3-.7-2 0-3.7.3-5 1.3-1 .7-1.3 2-1.3 3.7s.3 2.7 1 3.7c1 .6 2 1.3 3.6 1.3zm26.7 3.3l-1.3-.3-.7-1-7.7-26-1-1.3.7-.7h3.3l1.3.3.7 1.3 5.7 22 5-22 .7-1.3 1.3-.3h2.7l1.3.3.7 1.3 5.3 22.4 5.7-22.4.7-1.3 1.3-.3h3c.7 0 1 .3 1 .7v.7l-.3.6-8 26-.7 1.3-1.3.3h-3l-1.3-.3-.3-1.3-5.4-21.7-5 21.3-.7 1.3-1.3.3h-3zm43 1a22 22 0 0 1-9-2l-1-1-.3-.7v-1.6c0-.7.3-1 .7-1h.7l1 .3c2.6 1.3 5.3 1.7 7.6 1.7 2 0 3.7-.7 4.7-1.3 1.3-.7 1.7-1.7 1.7-3l-.7-2.4-3.3-1.6-5-1.7c-2.4-.7-4.4-2-5.4-3.4a8 8 0 0 1 1.7-11.3l3.3-1.7c2-.6 4.4-.6 6.7-.6l4 1 1.3.6 1 .7.3 1.3v1.3c0 1-.3 1.4-.6 1.4l-1.4-.7c-2-.7-4-1-6.3-1-2 0-3.7 0-4.7.7s-1.3 1.7-1.3 3c0 1 .3 1.7 1 2.3s1.7 1.3 3.7 2l4.6 1.3c2.4 1 4 2 5 3.4s1.7 3 1.7 4.7l-1 4-2.3 2.6c-1 1-2.4 1.7-3.7 2l-4.7.7z" fill="#252F3E"/>
  <path d="M91.3 48A73.3 73.3 0 0 1 1.3 41.3c-1.3-1-.3-2 .7-1.3a100 100 0 0 0 87.6 5.3c1.7-.6 3.4 1.4 1.7 2.7z" fill="#FF9900"/>
  <path d="M95.7 42.7c-1.3-1.7-9.4-1-12.7-.3-1.3 0-1.3-1-.3-1.7 6.3-4.3 16.7-3 18-1.7 1.3 1.7-.4 12-6 17-1 .7-2 .3-1.7-.7 1.7-3.3 4.4-11 2.7-12.6z" fill="#FF9900"/>
</svg> 